<svg id="Icon_About_us" data-name="Icon / About us" xmlns="http://www.w3.org/2000/svg" width="24" height="24" viewBox="0 0 24 24">
  <g id="Group_1506" data-name="Group 1506" transform="translate(-6061.022 -7634.765)">
    <g id="Group_1505" data-name="Group 1505">
      <path id="Union_1" data-name="Union 1" d="M5108.042,7444.846a1,1,0,0,1-1-1v-2.165h-.021v-13.146a.772.772,0,0,1,.772-.77h10.977a.776.776,0,0,1,.774.77v12.311h.019v3a1,1,0,0,1-1,1Zm.814-5.366a.427.427,0,0,0,.108.308.423.423,0,0,0,.293.138h7.692a.426.426,0,0,0,0-.85h-7.692A.428.428,0,0,0,5108.856,7439.48Zm0-2.3a.425.425,0,0,0,.4.447h7.692a.426.426,0,0,0,0-.85h-7.692A.425.425,0,0,0,5108.856,7437.18Zm.019-2.316a.428.428,0,0,0,.383.463h7.692a.425.425,0,0,0,0-.847h-7.692A.428.428,0,0,0,5108.875,7434.863Zm-.041-4.611v1.739a.61.61,0,0,0,.609.611h2.741a.61.61,0,0,0,.609-.611v-1.739a.609.609,0,0,0-.609-.609h-2.741A.61.61,0,0,0,5108.834,7430.252Z" transform="translate(960 210)" fill="#3acdec" stroke="rgba(0,0,0,0)" stroke-miterlimit="10" stroke-width="1"/>
    </g>
  </g>
  <rect id="Rectangle_1202" data-name="Rectangle 1202" width="24" height="24" fill="none"/>
</svg>
