<svg id="Icon_Cash" data-name="Icon / Cash" xmlns="http://www.w3.org/2000/svg" width="24" height="24" viewBox="0 0 24 24">
  <g id="Group_10105" data-name="Group 10105" transform="translate(1.514 1.514)">
    <g id="Group_10103" data-name="Group 10103" transform="translate(3.471 3.452)">
      <path id="Path_54" data-name="Path 54" d="M984.994-79.871l2.061,2.062a3.9,3.9,0,0,0,0,2.982l-8.976,8.977a3.9,3.9,0,0,0-3.048.027l-2.024-2.023a3.9,3.9,0,0,0,.028-3.048l8.976-8.977A3.9,3.9,0,0,0,984.994-79.871Z" transform="translate(-973.007 79.871)" fill="#31b734"/>
    </g>
    <circle id="Ellipse_16" data-name="Ellipse 16" cx="3.04" cy="3.04" r="3.04" transform="translate(7.445 7.445)" fill="#3cd83f"/>
    <path id="Path_55" data-name="Path 55" d="M969.642-69.1l6.642,6.643a.365.365,0,0,0,.514,0l13.6-13.6a.363.363,0,0,0,0-.514l-6.642-6.642a.363.363,0,0,0-.514,0l-13.6,13.6A.362.362,0,0,0,969.642-69.1Zm17.413-8.709a3.9,3.9,0,0,0,0,2.982l-8.976,8.977a3.9,3.9,0,0,0-3.048.027l-2.024-2.023a3.9,3.9,0,0,0,.028-3.048l8.976-8.977a3.9,3.9,0,0,0,2.983,0Z" transform="translate(-969.536 83.324)" fill="#3cd83f"/>
    <g id="Group_10104" data-name="Group 10104" transform="translate(8.665 8.481)">
      <path id="Path_56" data-name="Path 56" d="M981.489-70.965l-.317-.332a1.774,1.774,0,0,1-.629.332,1.747,1.747,0,0,1-.682.049l-.126-.72a2.161,2.161,0,0,0,.541-.012,1.2,1.2,0,0,0,.412-.141l-.652-.675a1.158,1.158,0,0,1-1.548-.061.93.93,0,0,1-.267-.5,1.222,1.222,0,0,1,.032-.577,1.554,1.554,0,0,1,.3-.555l-.283-.275.382-.381.286.294a1.594,1.594,0,0,1,1.148-.317l.1.664a1.283,1.283,0,0,0-.767.148l.637.653a1.885,1.885,0,0,1,.835-.275.873.873,0,0,1,.683.274,1.085,1.085,0,0,1,.351.824,1.438,1.438,0,0,1-.37.881l.32.313ZM979.018-73.1a.323.323,0,0,0,.261.1.967.967,0,0,0,.349-.105l-.587-.572a.6.6,0,0,0-.124.314A.326.326,0,0,0,979.018-73.1Zm2.1.378a.355.355,0,0,0-.286-.107.992.992,0,0,0-.37.114l.61.588a.635.635,0,0,0,.139-.322A.317.317,0,0,0,981.119-72.723Z" transform="translate(-978.2 74.842)" fill="#18691c"/>
    </g>
  </g>
  <rect id="Rectangle_2405" data-name="Rectangle 2405" width="24" height="24" fill="none"/>
</svg>
