<svg id="Icon_Copy" data-name="Icon / Copy" xmlns="http://www.w3.org/2000/svg" width="24" height="24" viewBox="0 0 24 24">
  <path id="Icon_awesome-copy" data-name="Icon awesome-copy" d="M9.649,13.509v1.206a.724.724,0,0,1-.724.724H.724A.724.724,0,0,1,0,14.715V3.618a.724.724,0,0,1,.724-.724H2.895V11.82a1.69,1.69,0,0,0,1.689,1.689Zm0-10.373V0H4.583A.724.724,0,0,0,3.86.724v11.1a.724.724,0,0,0,.724.724h8.2a.724.724,0,0,0,.724-.724V3.86H10.373A.726.726,0,0,1,9.649,3.136ZM13.3,2.2,11.308.212A.724.724,0,0,0,10.8,0h-.183V2.895h2.895V2.712A.724.724,0,0,0,13.3,2.2Z" transform="translate(5.244 4.421)" fill="#2a2a83"/>
  <rect id="Rectangle_2412" data-name="Rectangle 2412" width="24" height="24" fill="none"/>
</svg>
