<svg id="Icon_Custmor" data-name="Icon / Custmor" xmlns="http://www.w3.org/2000/svg" width="24" height="24" viewBox="0 0 24 24">
  <g id="Icon_customer-n" data-name="Icon / customer-n" transform="translate(-2.595 -2.116)">
    <g id="Group_1743" data-name="Group 1743" transform="translate(5.595 7.116)">
      <path id="Path_98" data-name="Path 98" d="M5613.311,9380.693" transform="translate(-5598.419 -9373.799)" fill="#3acdec" stroke="#fff" stroke-linecap="round" stroke-linejoin="round" stroke-width="1"/>
      <path id="Path_427" data-name="Path 427" d="M5604.481,9381.506a.7.7,0,0,1-.184-.024.679.679,0,0,1-.471-.834,6.894,6.894,0,0,1,13.274-.03.677.677,0,1,1-1.3.369,5.54,5.54,0,0,0-10.666.022A.678.678,0,0,1,5604.481,9381.506Z" transform="translate(-5601.792 -9375.604)" fill="#3acdec"/>
      <g id="Rectangle_380" data-name="Rectangle 380" transform="translate(0 5.075)">
        <path id="Path_428" data-name="Path 428" d="M5605.375,9387.5h-.433a2.556,2.556,0,0,1-2.624-2.475v-3.2a2.557,2.557,0,0,1,2.624-2.477h.433a1.305,1.305,0,0,1,1.327,1.279v5.6A1.3,1.3,0,0,1,5605.375,9387.5Z" transform="translate(-5602.318 -9379.351)" fill="#3acdec"/>
      </g>
      <g id="Rectangle_381" data-name="Rectangle 381" transform="translate(12.971 5.075)">
        <path id="Path_429" data-name="Path 429" d="M5613.651,9387.5h-.432a1.3,1.3,0,0,1-1.326-1.278v-5.6a1.3,1.3,0,0,1,1.326-1.279h.432a2.557,2.557,0,0,1,2.625,2.477v3.2A2.557,2.557,0,0,1,5613.651,9387.5Z" transform="translate(-5611.893 -9379.351)" fill="#3acdec"/>
      </g>
    </g>
  </g>
  <rect id="Rectangle_2417" data-name="Rectangle 2417" width="24" height="24" fill="none"/>
</svg>
