<svg id="Icon_Delete" data-name="Icon / Delete" xmlns="http://www.w3.org/2000/svg" width="22" height="22" viewBox="0 0 22 22">
  <g id="Group_1241" data-name="Group 1241" transform="translate(4.354 3.438)">
    <path id="Path_180" data-name="Path 180" d="M658.176,217.451v8.933a1.476,1.476,0,0,1-1.485,1.468h-7.05a1.477,1.477,0,0,1-1.486-1.468v-8.933" transform="translate(-646.52 -212.726)" fill="none" stroke="#fff" stroke-linecap="round" stroke-linejoin="round" stroke-width="1.5"/>
    <line id="Line_158" data-name="Line 158" x2="13.292" transform="translate(0 2.334)" fill="none" stroke="#fff" stroke-linecap="round" stroke-linejoin="round" stroke-width="1.5"/>
    <g id="Group_1240" data-name="Group 1240" transform="translate(4.973 5.2)">
      <line id="Line_159" data-name="Line 159" y2="7.26" fill="none" stroke="#fff" stroke-linecap="round" stroke-linejoin="round" stroke-width="1.5"/>
      <line id="Line_160" data-name="Line 160" y2="7.26" transform="translate(3.346)" fill="none" stroke="#fff" stroke-linecap="round" stroke-linejoin="round" stroke-width="1.5"/>
    </g>
    <path id="Rectangle_847" data-name="Rectangle 847" d="M1.793,0H4.04A1.793,1.793,0,0,1,5.833,1.793v.542a0,0,0,0,1,0,0H0a0,0,0,0,1,0,0V1.793A1.793,1.793,0,0,1,1.793,0Z" transform="translate(3.729)" fill="none" stroke="#fff" stroke-linecap="round" stroke-linejoin="round" stroke-width="1.5"/>
  </g>
  <rect id="Rectangle_848" data-name="Rectangle 848" width="22" height="22" fill="none" opacity="0.53"/>
</svg>
