<svg id="Icon_Download" data-name="Icon / Download" xmlns="http://www.w3.org/2000/svg" width="24" height="24" viewBox="0 0 24 24">
  <path id="Icon_awesome-cloud-upload-alt" data-name="Icon awesome-cloud-upload-alt" d="M15.118,7.723A2.7,2.7,0,0,0,12.6,4.05a2.686,2.686,0,0,0-1.5.456A4.5,4.5,0,0,0,2.7,6.75c0,.076,0,.152.006.228A4.051,4.051,0,0,0,4.05,14.849H14.4a3.6,3.6,0,0,0,.72-7.126ZM11.063,9.449H9.224V12.6a.451.451,0,0,1-.45.45H7.424a.451.451,0,0,1-.45-.45V9.449H5.135a.449.449,0,0,1-.318-.768L7.781,5.717a.451.451,0,0,1,.636,0l2.964,2.964a.45.45,0,0,1-.318.768Z" transform="translate(3 3.75)"/>
  <rect id="Rectangle_2411" data-name="Rectangle 2411" width="24" height="24" fill="none"/>
</svg>
