<svg id="Icon_Edit" data-name="Icon / Edit" xmlns="http://www.w3.org/2000/svg" width="24" height="24" viewBox="0 0 24 24">
  <g id="Group_9969" data-name="Group 9969" transform="translate(-269 -79)">
    <path id="Exclusion_2" data-name="Exclusion 2" d="M-470-84.5a10.432,10.432,0,0,1-7.425-3.075A10.432,10.432,0,0,1-480.5-95a10.43,10.43,0,0,1,3.075-7.424A10.432,10.432,0,0,1-470-105.5,10.511,10.511,0,0,1-459.5-95a10.432,10.432,0,0,1-3.075,7.425A10.43,10.43,0,0,1-470-84.5Zm.917-13.409-5.1,5.1v1.728h1.729l5.1-5.1-1.729-1.729Zm1.662-1.471a.457.457,0,0,0-.325.135l-.843.843,1.729,1.729.843-.843a.461.461,0,0,0,0-.65l-1.079-1.079A.455.455,0,0,0-467.421-99.381Z" transform="translate(751 186)" fill="#3acdec"/>
  </g>
  <rect id="Rectangle_2415" data-name="Rectangle 2415" width="24" height="24" fill="none"/>
</svg>
