<svg id="Icon_Eye" data-name="Icon / Eye" xmlns="http://www.w3.org/2000/svg" width="24" height="24" viewBox="0 0 24 24">
  <path id="Icon_ionic-md-eye" data-name="Icon ionic-md-eye" d="M12.167,7.383A10.664,10.664,0,0,0,2.25,14.068a10.7,10.7,0,0,0,19.833,0A10.664,10.664,0,0,0,12.167,7.383Zm0,11.143a4.458,4.458,0,1,1,4.507-4.458A4.5,4.5,0,0,1,12.167,18.526Zm0-7.132a2.674,2.674,0,1,0,2.7,2.674A2.7,2.7,0,0,0,12.167,11.394Z" transform="translate(-0.25 -0.753)" fill="#bfbfda"/>
  <rect id="Rectangle_2413" data-name="Rectangle 2413" width="24" height="24" fill="none"/>
</svg>
