<svg id="Icon_Friends" data-name="Icon / Friends" xmlns="http://www.w3.org/2000/svg" width="24" height="24" viewBox="0 0 24 24">
  <rect id="Rectangle_2408" data-name="Rectangle 2408" width="24" height="24" fill="none"/>
  <g id="Group_10110" data-name="Group 10110" transform="translate(-1008.94 37.036)">
    <circle id="Ellipse_17" data-name="Ellipse 17" cx="3.245" cy="3.245" r="3.245" transform="translate(1014.787 -32.531)"/>
    <circle id="Ellipse_18" data-name="Ellipse 18" cx="2.257" cy="2.257" r="2.257" transform="translate(1023.662 -30.775)"/>
    <path id="Path_4504" data-name="Path 4504" d="M1029.627-20.352h-4.677a7.4,7.4,0,0,0-2.427-3.151,4.584,4.584,0,0,1,3.4-1.486,4.636,4.636,0,0,1,4.516,3.592A.841.841,0,0,1,1029.627-20.352Z"/>
    <g id="Group_10109" data-name="Group 10109">
      <path id="Path_4505" data-name="Path 4505" d="M1024.637-18.48a.833.833,0,0,1-.828.94h-11.548a.835.835,0,0,1-.836-.94,6.68,6.68,0,0,1,6.606-5.738,6.64,6.64,0,0,1,4,1.334,6.62,6.62,0,0,1,2.049,2.532A6.38,6.38,0,0,1,1024.637-18.48Z" />
    </g>
  </g>
</svg>
