<svg id="Icon_Game" data-name="Icon / Game" xmlns="http://www.w3.org/2000/svg" width="24" height="24" viewBox="0 0 24 24">
  <g id="Group_1597" data-name="Group 1597">
    <rect id="Rectangle_1218" data-name="Rectangle 1218" width="24" height="24" fill="none"/>
  </g>
  <g id="Group_1599" data-name="Group 1599" transform="translate(1.037 -3.244)">
    <g id="Group_1598" data-name="Group 1598" transform="translate(2.394 5)">
      <path id="Path_378" data-name="Path 378" d="M19.509,14.893,18.537,8.06A3.565,3.565,0,0,0,15,5H6.922A3.565,3.565,0,0,0,3.39,8.06l-.972,6.833a2.271,2.271,0,0,0,2.248,2.6h0a2.261,2.261,0,0,0,1.606-.669l2.016-2.007h5.352l2.007,2.007a2.277,2.277,0,0,0,1.606.669h0A2.272,2.272,0,0,0,19.509,14.893Zm-9.438-4.541H8.287v1.784H7.395V10.352H5.611V9.46H7.395V7.676h.892V9.46h1.784Zm3.568-.892a.892.892,0,1,1,.892-.892A.895.895,0,0,1,13.639,9.46Zm1.784,2.676a.892.892,0,1,1,.892-.892A.895.895,0,0,1,15.423,12.136Z" transform="translate(-2.394 -1)"/>
    </g>
  </g>
</svg>
