<svg id="Icon_Help" data-name="Icon / Help" xmlns="http://www.w3.org/2000/svg" width="24" height="24" viewBox="0 0 24 24">
  <path id="Icon_ionic-md-help-circle" data-name="Icon ionic-md-help-circle" d="M11.518,3.375a8.143,8.143,0,1,0,8.143,8.143A8.147,8.147,0,0,0,11.518,3.375Zm.822,13.037H10.7V14.768H12.34Zm-.008-2.466H10.7c0-2.623,2.443-2.435,2.443-4.064a1.636,1.636,0,0,0-1.629-1.633A1.652,1.652,0,0,0,9.89,9.874H8.261a3.257,3.257,0,0,1,6.515,0C14.775,11.914,12.332,12.145,12.332,13.945Z" transform="translate(0.625 0.625)" fill="#3acdec"/>
  <rect id="Rectangle_2418" data-name="Rectangle 2418" width="24" height="24" fill="none"/>
</svg>
