<svg id="Icon_Home" data-name="Icon / Home" xmlns="http://www.w3.org/2000/svg" width="22" height="22" viewBox="0 0 22 22">
  <rect id="Rectangle_2163" data-name="Rectangle 2163" width="22" height="22" fill="none"/>
  <path id="Path_4500" data-name="Path 4500" d="M546.488-714.983l-6.752-4.5a.75.75,0,0,0-.832,0l-7.087,4.725a.749.749,0,0,0-.334.624v10.4a.75.75,0,0,0,.75.75h4.942a.75.75,0,0,0,.75-.75v-5.942h2.455v5.942a.75.75,0,0,0,.75.75h4.942a.75.75,0,0,0,.75-.75v-10.627A.75.75,0,0,0,546.488-714.983Z" transform="translate(-528.483 722.607)"/>
</svg>
