<svg id="Icon_News" data-name="Icon / News" xmlns="http://www.w3.org/2000/svg" width="24" height="24" viewBox="0 0 24 24">
  <rect id="Rectangle_2407" data-name="Rectangle 2407" width="24" height="24" fill="none"/>
  <path id="Path_4502" data-name="Path 4502" d="M970.35-26.283a1,1,0,0,0,.51.14h.61A4.582,4.582,0,0,1,970.35-26.283Z" transform="translate(-958.91 38.213)" fill="#3cd83f"/>
  <path id="Path_4503" data-name="Path 4503" d="M976.493-36.213H965.4a.862.862,0,0,0-.863.863v2.456H963.1a1.082,1.082,0,0,0-1.085,1.076v8.978a3.87,3.87,0,0,0,2.941,3.755.031.031,0,0,0,.016.008,3.752,3.752,0,0,0,.92.116h10.6a.862.862,0,0,0,.863-.863V-35.35A.862.862,0,0,0,976.493-36.213Zm-11.96,15.632a2.646,2.646,0,0,1-1.282-2.259v-8.822h1.282Zm8.8-1.035h-7.04v-1.1h7.04Zm2.268-2.5h-9.308V-25.23H975.6Zm0-2.514h-9.308v-1.1H975.6Zm0-3.483h-9.308v-3.746H975.6Z" transform="translate(-957.688 39.588)"/>
</svg>
