<svg id="Icon_Prize" data-name="Icon / Prize" xmlns="http://www.w3.org/2000/svg" width="24" height="24" viewBox="0 0 24 24">
  <rect id="Rectangle_2216" data-name="Rectangle 2216" width="24" height="24" fill="none"/>
  <path id="Path_4501" data-name="Path 4501" d="M657.32-696.727h-3.2v-1.566a.739.739,0,0,0-.739-.738h-8.151a.739.739,0,0,0-.739.738v1.565h-3.149a.739.739,0,0,0-.739.738v3.651a4.63,4.63,0,0,0,4.628,4.62.728.728,0,0,0,.351-.1c.1.133.182.273.293.4a7.449,7.449,0,0,1,1.133,1.67,5.087,5.087,0,0,0-2.423,3.559.741.741,0,0,0,.166.6.74.74,0,0,0,.564.26H653.3a.739.739,0,0,0,.564-.26.743.743,0,0,0,.166-.6,5.081,5.081,0,0,0-2.423-3.559,7.529,7.529,0,0,1,1.137-1.673c.108-.123.192-.263.289-.394a.719.719,0,0,0,.35.1,4.677,4.677,0,0,0,4.675-4.668v-3.6A.739.739,0,0,0,657.32-696.727Zm-12.825,5.621v1.824a3.151,3.151,0,0,1-2.41-3.056v-2.913h2.41Zm6.1-1.116.461,1.978-1.741-1.049-1.737,1.049.462-1.978-1.538-1.33,2.026-.171.789-1.865.789,1.865,2.027.171Zm5.988-.163a3.2,3.2,0,0,1-2.457,3.105v-5.97h2.456Z" transform="translate(-637.48 702.173)"/>
</svg>
