<svg id="Icon_Setting" data-name="Icon / Setting" xmlns="http://www.w3.org/2000/svg" width="24" height="24" viewBox="0 0 24 24">
  <path id="Icon_ionic-ios-settings" data-name="Icon ionic-ios-settings" d="M6143.077,7648.122a2.06,2.06,0,0,1,1.321-1.921,8.179,8.179,0,0,0-.987-2.379,2.082,2.082,0,0,1-.838.178,2.056,2.056,0,0,1-1.879-2.892,8.142,8.142,0,0,0-2.376-.986,2.056,2.056,0,0,1-3.841,0,8.157,8.157,0,0,0-2.38.987,2.053,2.053,0,0,1-1.879,2.892,2.021,2.021,0,0,1-.837-.178,8.349,8.349,0,0,0-.983,2.383,2.057,2.057,0,0,1,0,3.841,8.153,8.153,0,0,0,.987,2.38,2.055,2.055,0,0,1,2.713,2.712,8.23,8.23,0,0,0,2.379.987,2.053,2.053,0,0,1,3.833,0,8.171,8.171,0,0,0,2.38-.987,2.057,2.057,0,0,1,2.712-2.712,8.218,8.218,0,0,0,.987-2.38A2.067,2.067,0,0,1,6143.077,7648.122Zm-6.642,3.329a3.333,3.333,0,1,1,3.334-3.333,3.333,3.333,0,0,1-3.334,3.333Z" transform="translate(-6124.398 -7636.124)" fill="#3acdec"/>
  <rect id="Rectangle_1204" data-name="Rectangle 1204" width="24" height="24" fill="none"/>
</svg>
