<svg id="Icon_Shield" data-name="Icon / Shield" xmlns="http://www.w3.org/2000/svg" width="24" height="24" viewBox="0 0 24 24">
  <g id="Group_4971" data-name="Group 4971" transform="translate(-55.582 -16.186)">
    <path id="Path_4629" data-name="Path 4629" d="M68.712,38.51c9.528-5.527,7.649-17.38,7.649-17.38l-7.723-2.839a1.721,1.721,0,0,0-1.184,0L59.732,21.13s-1.88,11.853,7.649,17.38A1.35,1.35,0,0,0,68.712,38.51Z" fill="none" stroke="#fff" stroke-linecap="round" stroke-linejoin="round" stroke-width="1.5"/>
    <path id="Path_4630" data-name="Path 4630" d="M68.046,35.419c-4.89-3.4-5.461-9.117-5.41-11.979l5.41-1.988,5.411,1.988C73.508,26.3,72.936,32.013,68.046,35.419Z" fill="none" stroke="#fff" stroke-linecap="round" stroke-linejoin="round" stroke-width="1.5"/>
    <path id="Path_4631" data-name="Path 4631" d="M68.046,28.549l1.629.983-.432-1.852,1.438-1.247-1.894-.161-.741-1.746-.74,1.746-1.895.161L66.85,27.68l-.432,1.852Z" fill="#fff"/>
  </g>
  <rect id="Rectangle_2302" data-name="Rectangle 2302" width="24" height="24" fill="none"/>
</svg>
